<svg version="1.1" id="Layer_1" xmlns="http://www.w3.org/2000/svg" xmlns:xlink="http://www.w3.org/1999/xlink" x="0px" y="0px"
	 width="100%" viewBox="0 0 1064 209" enable-background="new 0 0 1064 209" xml:space="preserve">
<path fill="#FFFFFF" opacity="1.000000" stroke="none" 
	d="
M1012.000000,210.000000 
	C674.666687,210.000000 337.833344,210.000000 1.000000,210.000000 
	C1.000000,140.333328 1.000000,70.666664 1.000000,1.000000 
	C355.666656,1.000000 710.333313,1.000000 1065.000000,1.000000 
	C1065.000000,70.666664 1065.000000,140.333328 1065.000000,210.000000 
	C1047.500000,210.000000 1030.000000,210.000000 1012.000000,210.000000 
M175.564713,135.466583 
	C175.564713,135.466583 175.439560,135.545410 175.188492,135.553085 
	C175.188492,135.553085 175.011948,135.731766 174.491592,135.798325 
	C174.328049,135.860245 174.164505,135.922150 173.424332,135.827713 
	C172.296295,136.058960 171.012787,136.030930 170.081055,136.589569 
	C169.008911,137.232407 168.247803,138.394012 167.351593,139.330292 
	C168.422806,139.796616 169.490128,140.638428 170.566071,140.649628 
	C172.683136,140.671692 174.805008,140.232468 176.982010,140.004944 
	C176.982010,140.004944 176.993576,139.945831 177.875412,140.057327 
	C180.242645,139.987518 182.609863,139.917709 185.729080,139.987793 
	C186.490356,139.949463 187.251617,139.911133 188.824738,140.060379 
	C192.761688,140.302383 196.698654,140.544388 200.974426,140.807205 
	C201.263977,134.792892 196.332932,136.596390 193.363419,134.658005 
	C191.652252,130.893890 189.870316,127.160049 188.244156,123.359558 
	C184.478989,114.560173 180.789215,105.728523 177.039932,96.937447 
	C177.039932,96.937447 177.082321,96.934563 177.044815,96.183411 
	C174.325058,89.579765 171.770737,82.899231 168.763763,76.429077 
	C168.053482,74.900780 165.783432,73.142586 164.298416,73.201164 
	C162.851028,73.258255 160.819565,75.243073 160.194885,76.833389 
	C153.943161,92.748795 147.916840,108.752922 141.854843,124.742584 
	C139.749268,130.296371 138.473419,136.525711 130.654617,136.902679 
	C130.032074,136.932693 129.481018,138.445129 128.896729,139.268646 
	C129.616241,139.752670 130.330185,140.647568 131.056122,140.657379 
	C138.638458,140.760040 146.222717,140.720703 153.806442,140.720703 
	C154.097260,140.239914 154.388092,139.759125 154.678909,139.278351 
	C153.670471,138.291794 152.829163,136.801071 151.625916,136.402176 
	C144.855103,134.157562 144.647919,133.887405 147.098022,127.188347 
	C147.782104,125.317947 148.599014,123.479294 149.088165,121.558136 
	C149.958664,118.139168 151.838684,116.500053 155.495651,117.119774 
	C156.789627,117.339050 158.183868,117.346527 159.477234,117.126694 
	C166.925690,115.860672 172.389282,117.775337 174.273590,126.844116 
	C174.542038,127.387474 174.810486,127.930840 174.964966,128.302094 
	C174.964966,128.302094 175.116898,128.545151 175.097244,128.758911 
	C175.097244,128.758911 175.259933,128.898926 175.247696,129.496964 
	C175.536469,129.996002 175.825241,130.495026 176.181778,131.593094 
	C176.363052,132.571213 176.544327,133.549347 176.283844,134.686890 
	C175.992172,134.838715 175.792587,135.069992 175.564713,135.466583 
M276.845276,89.175522 
	C278.645782,89.947258 280.446320,90.718994 282.246826,91.490730 
	C282.586090,91.082954 282.925354,90.675171 283.264618,90.267395 
	C282.553131,87.696365 281.841675,85.125336 281.207214,82.019127 
	C281.093842,81.680382 280.980469,81.341637 280.880737,80.245956 
	C280.383789,75.448921 277.268646,74.083076 272.341888,74.024971 
	C271.885590,74.038208 271.429321,74.051445 270.464111,73.683632 
	C269.642883,73.586021 268.821625,73.488411 267.264923,73.171646 
	C266.501129,73.180870 265.737335,73.190094 264.502960,73.058510 
	C264.502960,73.058510 264.023529,73.165344 263.192139,73.011414 
	C261.786346,73.024208 260.380524,73.036995 258.320801,72.775459 
	C253.252533,73.503372 247.901947,73.435356 243.170731,75.113495 
	C230.679016,79.544266 223.172012,88.823112 221.296555,101.900848 
	C219.378876,115.272804 222.395294,127.361412 234.414078,135.223862 
	C248.217087,144.253525 263.116150,143.284439 278.078247,138.454407 
	C279.443878,138.013550 281.040985,136.479813 281.422180,135.138550 
	C282.572662,131.090622 283.176361,126.887291 283.993225,122.744545 
	C283.463074,122.319855 282.932922,121.895172 282.402740,121.470490 
	C280.304016,123.098885 277.745514,124.374504 276.181274,126.413055 
	C266.181519,139.444977 249.140579,140.480331 240.273788,126.183769 
	C240.273788,126.183769 240.052811,125.983414 240.001541,125.210716 
	C235.924911,116.050400 236.274933,106.548027 238.052917,97.015350 
	C239.466827,89.434578 242.871246,82.998993 250.584534,78.969955 
	C252.065079,78.602676 253.545639,78.235397 255.669937,78.002007 
	C256.103485,77.956139 256.537018,77.910271 257.639496,78.025352 
	C258.095581,78.011040 258.551697,77.996727 259.643372,78.327873 
	C266.830841,79.064224 271.758057,83.604042 276.625366,88.401306 
	C276.625366,88.401306 276.604828,88.480179 276.845276,89.175522 
M366.858032,73.142929 
	C363.704681,69.894325 360.849274,71.273849 357.623077,73.953285 
	C357.458862,73.985725 357.294678,74.018166 356.451691,74.066551 
	C355.484985,74.544273 354.518280,75.022003 352.143433,76.195602 
	C356.190399,78.631447 359.257385,80.477440 362.768616,82.590820 
	C363.010437,83.598022 363.739777,85.348701 363.787262,87.117699 
	C363.870483,90.216553 364.721985,94.923790 363.132416,96.104652 
	C359.658173,98.685638 354.944946,99.891693 350.560730,100.844009 
	C347.968933,101.406967 345.030670,100.129333 342.263794,100.210609 
	C340.126587,100.273384 337.762451,102.317879 336.692291,98.628212 
	C336.063965,96.461884 334.912445,94.418381 334.509705,92.225349 
	C334.225830,90.679443 335.014069,88.967796 334.957794,87.342827 
	C334.816986,83.275604 335.701721,80.595245 340.709473,80.806847 
	C342.081390,80.864822 344.736633,78.773605 344.692719,77.760117 
	C344.619690,76.076096 343.069702,74.235077 341.716431,72.887238 
	C340.243713,71.420364 338.173737,70.573204 336.567352,69.215446 
	C334.413147,67.394653 333.094818,67.852585 332.035248,70.304581 
	C331.452667,71.652718 330.668213,72.913612 329.176727,74.551910 
	C324.778320,74.315712 320.379883,74.079514 315.674530,73.242119 
	C313.077911,68.626251 311.142822,72.238777 308.517914,74.003738 
	C308.067108,74.338005 307.616333,74.672279 306.400116,75.122002 
	C305.883911,76.840019 305.367676,78.558044 304.623291,81.035378 
	C307.822052,80.020538 309.681946,79.430458 312.026581,78.634392 
	C312.351166,78.747940 312.675751,78.861488 313.082275,79.727371 
	C313.651031,81.545921 314.554260,83.332489 314.731689,85.188461 
	C315.586212,94.126534 309.777161,103.122948 314.946594,112.050919 
	C315.019501,112.176857 314.981415,112.378593 314.966339,112.542320 
	C314.485535,117.763947 314.001160,122.985237 313.517334,128.206589 
	C311.479584,129.258636 310.518951,130.963699 309.288544,132.444641 
	C308.885712,132.929520 307.781982,132.832047 306.929474,132.432159 
	C306.624695,132.109543 306.319916,131.786911 306.015137,131.464294 
	C305.833527,131.673935 305.651947,131.883575 305.470337,132.093216 
	C305.980621,132.395233 306.490936,132.697266 306.994049,133.711624 
	C307.042389,135.158264 307.090698,136.604919 307.260193,138.676712 
	C307.237732,139.099716 307.215271,139.522736 306.431793,140.089310 
	C306.055908,141.029938 305.679993,141.970551 305.304108,142.911179 
	C306.657623,143.252350 308.021698,143.920441 309.362762,143.877060 
	C314.650482,143.705994 319.928589,143.131104 325.214996,143.060059 
	C329.058685,143.008408 333.001495,143.091614 336.728821,143.902252 
	C339.743561,144.557907 343.973053,143.498291 344.873505,140.815659 
	C346.149170,137.015182 344.491241,134.171234 340.517792,132.946823 
	C339.372040,132.593750 338.143738,131.858093 337.406708,130.935577 
	C332.880005,125.269913 334.779572,118.895889 335.249847,112.748322 
	C342.076477,111.825317 348.541412,110.951210 355.516052,109.849396 
	C355.680328,109.761993 355.844635,109.674583 356.789490,109.789154 
	C357.858215,109.889069 358.926941,109.988983 360.491791,110.601250 
	C361.549896,110.943115 362.608002,111.284973 363.410889,111.544373 
	C363.410889,114.851639 362.600800,118.106323 363.577942,120.683372 
	C365.673431,126.210022 364.250824,129.939178 359.196808,133.008682 
	C357.020996,130.007462 354.522705,127.354401 349.649872,130.350006 
	C355.228210,132.540253 353.239319,136.966110 353.684723,140.580551 
	C354.113434,144.059036 356.782227,145.686081 359.876038,144.125381 
	C363.011688,142.543579 366.067474,140.892563 369.505219,143.548157 
	C370.000854,143.931015 371.072113,143.520416 371.871826,143.566498 
	C374.953613,143.744034 378.083466,143.679413 381.101959,144.223557 
	C385.632660,145.040298 389.803070,145.700897 393.753204,142.105179 
	C394.952881,141.013123 398.653778,140.713928 399.633362,141.668518 
	C404.224670,146.142654 409.791840,144.937241 415.029053,144.939194 
	C605.426025,145.010422 795.822998,144.998962 986.219971,144.997894 
	C987.719055,144.997879 989.276245,145.227005 990.695984,144.887772 
	C991.578186,144.676987 992.252319,143.595444 993.674805,142.738724 
	C994.117188,142.800369 994.559509,142.862015 995.121277,143.651062 
	C997.851929,146.378967 999.994324,144.965698 1002.324768,142.108475 
	C1002.542358,141.738235 1002.760010,141.367981 1003.747253,141.000168 
	C1005.134521,140.563095 1006.521790,140.126022 1007.360596,139.861755 
	C1006.441223,136.402863 1005.122437,133.750870 1005.136719,131.106079 
	C1005.209229,117.732956 1005.708862,104.362030 1005.761841,90.989136 
	C1005.765747,89.999725 1003.447266,88.184845 1002.179077,88.158386 
	C998.232544,88.076027 994.271851,88.959007 990.316589,88.959991 
	C799.717590,89.007469 609.118652,89.001503 418.519684,89.000381 
	C417.020386,89.000374 415.482117,89.198242 414.029663,88.933220 
	C410.732452,88.331604 407.880615,87.094933 408.927063,82.817253 
	C411.092682,82.804291 413.258301,82.779961 415.423920,82.779976 
	C608.513489,82.781357 801.603027,82.784698 994.692566,82.786446 
	C996.524963,82.786461 998.416626,83.036560 1000.166565,82.651398 
	C1001.154297,82.433998 1002.600220,81.197716 1002.651367,80.348801 
	C1002.906677,76.111885 1002.768066,71.851227 1002.768066,67.536049 
	C802.450073,67.536049 602.943970,67.536049 403.385925,67.536049 
	C403.385925,72.977547 403.385925,78.092545 403.125427,84.110863 
	C402.417358,88.659035 401.228241,93.193466 401.097900,97.758141 
	C400.794403,108.384666 401.004181,119.025749 400.996735,129.660934 
	C400.995789,130.989075 401.411163,132.617371 400.800964,133.577194 
	C399.805634,135.142807 398.258301,136.486908 396.666779,137.480606 
	C396.026001,137.880707 393.840912,137.293365 393.739075,136.843109 
	C392.594635,131.784866 388.201111,131.484070 383.998779,130.310181 
	C383.998779,116.496628 384.218475,102.789131 383.885742,89.095070 
	C383.760590,83.943474 384.759766,80.597244 390.308258,79.387596 
	C392.646912,78.877739 394.786957,77.233261 390.893402,74.431923 
	C390.568634,74.166885 390.243835,73.901848 389.450958,73.215698 
	C387.963531,73.398689 386.476074,73.581673 384.070496,73.950233 
	C378.383362,73.905167 372.696228,73.860100 366.858032,73.142929 
M48.790531,74.757637 
	C48.413116,74.806335 48.035698,74.855034 47.658283,74.903725 
	C47.903553,75.232513 48.148823,75.561310 48.080002,76.458344 
	C48.811954,77.270737 49.602428,78.830498 50.266697,78.778488 
	C56.118324,78.320305 56.065144,81.977081 56.036251,86.173508 
	C55.928730,101.788345 56.015739,117.404526 55.759087,133.485092 
	C55.605736,133.998291 55.452389,134.511505 54.599106,135.293884 
	C52.723270,135.842484 50.847435,136.391083 48.254940,136.873764 
	C47.745144,137.899063 47.235352,138.924362 46.725555,139.949661 
	C47.491043,140.271744 48.256535,140.593826 49.936443,141.005829 
	C54.910793,140.698212 59.885139,140.390579 65.651855,140.310028 
	C73.425850,140.158615 81.199837,140.007217 89.741013,139.872650 
	C92.593513,139.003525 95.593094,138.450363 98.270103,137.204239 
	C105.424538,133.873917 109.108093,128.122482 109.009430,120.160614 
	C108.918121,112.793190 104.771523,108.198662 98.435852,105.212189 
	C97.179070,104.619774 95.870689,104.136841 94.149132,103.421974 
	C96.032440,102.386383 97.518578,101.666969 98.905174,100.790138 
	C105.552101,96.586784 107.556313,88.536690 103.240669,82.170815 
	C99.652756,76.878395 94.224937,74.275352 87.962677,74.086723 
	C80.325996,73.856682 72.672775,74.175644 64.137367,74.095001 
	C61.737442,74.264565 59.337517,74.434128 56.150845,74.407021 
	C53.750912,74.669708 51.350979,74.932396 48.790531,74.757637 
M356.004517,119.855766 
	C356.214783,121.858574 356.425049,123.861382 356.635345,125.864189 
	C357.217926,125.808815 357.800537,125.753448 358.383118,125.698074 
	C358.383118,122.360207 358.383118,119.022339 358.383118,115.684471 
	C358.107574,115.574265 357.832062,115.464058 357.556519,115.353844 
	C357.045349,116.573624 356.534180,117.793404 356.004517,119.855766 
M357.728302,94.202087 
	C357.728302,91.013527 357.728302,87.824974 357.728302,84.636414 
	C357.076233,84.672264 356.424164,84.708122 355.772125,84.743973 
	C356.206146,88.012016 356.640167,91.280060 357.728302,94.202087 
z"/>
<path fill="#497199" opacity="1.000000" stroke="none" 
	d="
M995.001892,142.923676 
	C994.559509,142.862015 994.117188,142.800369 992.981934,142.646255 
	C991.625000,142.511139 990.960938,142.431122 990.296875,142.431122 
	C798.324280,142.432922 606.351624,142.440247 414.379028,142.447433 
	C410.746613,142.447571 407.114227,142.447449 403.305847,142.447449 
	C403.305847,125.384430 403.305847,108.816315 403.305847,92.053291 
	C404.904175,91.971931 406.207336,91.847504 407.510498,91.847481 
	C604.149109,91.843391 800.787659,91.859795 997.426208,91.773048 
	C1001.498413,91.771255 1002.887268,92.772957 1002.836487,97.029022 
	C1002.661804,111.682617 1002.897949,126.341103 1002.977600,140.997726 
	C1002.760010,141.367981 1002.542358,141.738235 1001.791748,142.316437 
	C999.173096,142.657486 997.087463,142.790573 995.001892,142.923676 
z"/>
<path fill="#878787" opacity="1.000000" stroke="none" 
	d="
M403.385925,83.207542 
	C403.385925,78.092545 403.385925,72.977547 403.385925,67.536049 
	C602.943970,67.536049 802.450073,67.536049 1002.768066,67.536049 
	C1002.768066,71.851227 1002.906677,76.111885 1002.651367,80.348801 
	C1002.600220,81.197716 1001.154297,82.433998 1000.166565,82.651398 
	C998.416626,83.036560 996.524963,82.786461 994.692566,82.786446 
	C801.603027,82.784698 608.513489,82.781357 415.423920,82.779976 
	C413.258301,82.779961 411.092682,82.804291 408.127014,82.816635 
	C406.013275,82.946518 404.699585,83.077026 403.385925,83.207542 
z"/>
<path fill="#F6FAFB" opacity="1.000000" stroke="none" 
	d="
M403.255676,83.659203 
	C404.699585,83.077026 406.013275,82.946518 407.662628,82.888733 
	C407.880615,87.094933 410.732452,88.331604 414.029663,88.933220 
	C415.482117,89.198242 417.020386,89.000374 418.519684,89.000381 
	C609.118652,89.001503 799.717590,89.007469 990.316589,88.959991 
	C994.271851,88.959007 998.232544,88.076027 1002.179077,88.158386 
	C1003.447266,88.184845 1005.765747,89.999725 1005.761841,90.989136 
	C1005.708862,104.362030 1005.209229,117.732956 1005.136719,131.106079 
	C1005.122437,133.750870 1006.441223,136.402863 1007.360596,139.861755 
	C1006.521790,140.126022 1005.134521,140.563095 1003.362427,140.998947 
	C1002.897949,126.341103 1002.661804,111.682617 1002.836487,97.029022 
	C1002.887268,92.772957 1001.498413,91.771255 997.426208,91.773048 
	C800.787659,91.859795 604.149109,91.843391 407.510498,91.847481 
	C406.207336,91.847504 404.904175,91.971931 403.305847,92.053291 
	C403.305847,108.816315 403.305847,125.384430 403.305847,142.447449 
	C407.114227,142.447449 410.746613,142.447571 414.379028,142.447433 
	C606.351624,142.440247 798.324280,142.432922 990.296875,142.431122 
	C990.960938,142.431122 991.625000,142.511139 992.654419,142.729248 
	C992.252319,143.595444 991.578186,144.676987 990.695984,144.887772 
	C989.276245,145.227005 987.719055,144.997879 986.219971,144.997894 
	C795.822998,144.998962 605.426025,145.010422 415.029053,144.939194 
	C409.791840,144.937241 404.224670,146.142654 399.633362,141.668518 
	C398.653778,140.713928 394.952881,141.013123 393.753204,142.105179 
	C389.803070,145.700897 385.632660,145.040298 381.101959,144.223557 
	C378.083466,143.679413 374.953613,143.744034 371.871826,143.566498 
	C371.072113,143.520416 370.000854,143.931015 369.505219,143.548157 
	C366.067474,140.892563 363.011688,142.543579 359.876038,144.125381 
	C356.782227,145.686081 354.113434,144.059036 353.684723,140.580551 
	C353.239319,136.966110 355.228210,132.540253 349.649872,130.350006 
	C354.522705,127.354401 357.020996,130.007462 359.196808,133.008682 
	C364.250824,129.939178 365.673431,126.210022 363.577942,120.683372 
	C362.600800,118.106323 363.410889,114.851639 363.410889,111.544373 
	C362.608002,111.284973 361.549896,110.943115 360.486023,110.219368 
	C360.644470,109.759117 360.808655,109.680740 361.366516,109.713455 
	C362.845947,109.803665 363.931702,109.782784 365.421570,109.897186 
	C366.228180,111.522072 366.934113,113.002983 366.977112,114.502914 
	C367.115173,119.316185 366.739044,124.155243 367.073242,128.948654 
	C367.390747,133.502441 365.698944,135.568756 361.157379,136.006897 
	C359.540314,136.162888 358.055115,137.685226 356.509705,138.583847 
	C356.786407,139.062515 357.063110,139.541183 357.339813,140.019852 
	C368.380402,140.019852 379.420990,140.019852 390.735046,140.019852 
	C390.931183,135.441757 387.259369,135.822067 384.954651,135.229401 
	C382.470612,134.590637 381.286194,133.782867 381.296173,130.993805 
	C381.352631,115.212334 381.158447,99.429504 381.306427,83.649551 
	C381.321289,82.066872 383.059326,80.500351 384.379944,78.906296 
	C386.823395,77.450607 390.941193,79.408615 391.193817,74.988609 
	C394.786957,77.233261 392.646912,78.877739 390.308258,79.387596 
	C384.759766,80.597244 383.760590,83.943474 383.885742,89.095070 
	C384.218475,102.789131 383.998779,116.496628 383.998779,130.310181 
	C388.201111,131.484070 392.594635,131.784866 393.739075,136.843109 
	C393.840912,137.293365 396.026001,137.880707 396.666779,137.480606 
	C398.258301,136.486908 399.805634,135.142807 400.800964,133.577194 
	C401.411163,132.617371 400.995789,130.989075 400.996735,129.660934 
	C401.004181,119.025749 400.794403,108.384666 401.097900,97.758141 
	C401.228241,93.193466 402.417358,88.659035 403.255676,83.659203 
z"/>
<path fill="#4F7294" opacity="1.000000" stroke="none" 
	d="
M56.029724,133.020203 
	C56.015739,117.404526 55.928730,101.788345 56.036251,86.173508 
	C56.065144,81.977081 56.118324,78.320305 50.266697,78.778488 
	C49.602428,78.830498 48.811954,77.270737 48.375595,76.101105 
	C48.837448,75.598167 48.930737,75.415245 48.951046,75.195084 
	C51.350979,74.932396 53.750912,74.669708 56.490376,74.824448 
	C57.518795,76.480164 58.178421,78.754501 58.901703,78.774918 
	C61.819416,78.857323 64.756767,78.244232 68.147827,77.831932 
	C66.626076,76.088989 65.826393,75.173073 65.026711,74.257156 
	C72.672775,74.175644 80.325996,73.856682 87.962677,74.086723 
	C94.224937,74.275352 99.652756,76.878395 103.240669,82.170815 
	C107.556313,88.536690 105.552101,96.586784 98.905174,100.790138 
	C97.518578,101.666969 96.032440,102.386383 94.149132,103.421974 
	C95.870689,104.136841 97.179070,104.619774 98.435852,105.212189 
	C104.771523,108.198662 108.918121,112.793190 109.009430,120.160614 
	C109.108093,128.122482 105.424538,133.873917 98.270103,137.204239 
	C95.593094,138.450363 92.593513,139.003525 89.059547,139.615128 
	C86.183769,137.692383 81.519775,141.652542 81.348106,136.060822 
	C82.342827,135.939514 83.009560,135.884689 84.003174,135.873688 
	C84.880424,135.629700 85.430801,135.341904 86.281006,134.885590 
	C93.007095,130.897842 95.482735,124.982292 93.793716,117.481873 
	C92.411560,111.344139 87.262169,107.373161 79.940010,106.993401 
	C76.980713,106.839928 74.004776,107.007111 70.775879,107.018784 
	C70.341553,107.001923 70.167778,106.994644 69.986298,106.610725 
	C68.672920,105.128296 67.367264,104.022507 65.352242,102.315948 
	C66.074959,100.071251 67.479118,97.149330 67.876823,94.096298 
	C68.333908,90.587402 68.189941,86.920456 67.681755,83.412758 
	C67.523354,82.319435 65.417770,80.929329 64.052780,80.735168 
	C62.318008,80.488434 60.429810,81.320366 58.022190,81.805115 
	C58.541676,99.867706 59.067581,118.153519 59.593163,136.439331 
	C64.270752,138.867310 66.069572,137.930954 67.041817,132.864822 
	C67.303696,131.500229 68.318558,130.280151 68.994339,129.329926 
	C69.578583,130.443268 70.156265,131.220398 70.834717,132.334930 
	C71.005806,133.373367 71.076126,134.074448 71.155899,135.147156 
	C71.768990,136.703522 72.372620,137.888260 73.252182,139.614532 
	C69.981590,139.797073 67.420540,139.940018 64.859489,140.082947 
	C59.885139,140.390579 54.910793,140.698212 49.463669,140.563568 
	C48.984467,139.060776 48.978031,138.000229 48.971603,136.939682 
	C50.847435,136.391083 52.723270,135.842484 55.209671,135.119141 
	C55.890068,134.303009 55.959896,133.661606 56.029724,133.020203 
M79.208374,102.539795 
	C79.474243,102.429474 79.740112,102.319153 80.748215,102.033676 
	C88.140678,99.935211 90.484116,97.484795 91.040100,91.748718 
	C92.133995,80.463081 81.049309,76.427879 72.300140,78.653030 
	C71.461227,78.866394 70.498276,80.544823 70.448143,81.584381 
	C70.160706,87.543877 70.043846,93.516747 70.106331,99.482597 
	C70.116112,100.416641 71.339767,101.337959 72.180573,102.535797 
	C72.180573,102.535797 72.621742,102.638779 72.621742,102.638779 
	C72.621742,102.638779 72.987206,102.348572 73.843506,102.276749 
	C75.561859,102.276375 77.280220,102.275993 79.208374,102.539795 
z"/>
<path fill="#507398" opacity="1.000000" stroke="none" 
	d="
M360.972870,109.602356 
	C360.808655,109.680740 360.644470,109.759117 360.237976,109.963188 
	C358.926941,109.988983 357.858215,109.889069 356.302246,109.375473 
	C354.205902,109.111847 352.596802,109.261894 350.543640,109.532089 
	C345.290375,109.559097 340.481354,109.411743 335.671875,109.395523 
	C333.236542,109.387314 331.031158,109.712456 331.079987,113.099609 
	C331.182617,120.215118 331.111176,127.333145 331.111176,134.821060 
	C333.754181,135.298416 336.082825,135.452667 338.201538,136.201187 
	C339.479950,136.652832 340.432190,138.027847 341.530975,138.987946 
	C340.321472,139.538544 339.110565,140.564865 337.902740,140.561279 
	C330.939423,140.540619 323.977142,140.265350 317.013916,140.099518 
	C313.740845,140.021561 310.466553,139.995377 307.192810,139.945740 
	C307.215271,139.522736 307.237732,139.099716 307.472290,138.117264 
	C309.737091,136.983887 311.946045,136.706680 313.789734,135.735901 
	C315.107208,135.042191 316.827576,133.431122 316.845795,132.206726 
	C317.090942,115.738068 317.028687,99.265114 317.148102,82.793999 
	C317.170166,79.749519 316.044617,78.445801 313.000336,78.975037 
	C312.675751,78.861488 312.351166,78.747940 311.490509,78.504784 
	C309.691467,77.252304 308.428497,76.129425 307.165527,75.006546 
	C307.616333,74.672279 308.067108,74.338005 309.209412,73.951073 
	C311.927765,73.880043 313.954620,73.861679 315.981476,73.843315 
	C320.379883,74.079514 324.778320,74.315712 329.954834,74.530991 
	C333.537140,74.339165 336.344818,74.020973 339.143341,74.087761 
	C339.974792,74.107590 340.780396,75.209274 341.597809,75.815231 
	C340.852051,76.534599 340.210999,77.676605 339.340485,77.892303 
	C336.949677,78.484657 334.462585,78.688187 331.815430,78.787102 
	C330.570953,79.340401 328.635101,80.137352 328.621277,80.966385 
	C328.524628,86.759872 328.691986,92.569099 329.086731,98.352005 
	C329.194519,99.930908 330.367950,101.437065 331.246887,103.099350 
	C331.681732,103.419006 331.878754,103.652412 332.239044,104.214340 
	C335.686188,106.437119 338.841278,105.748268 342.433289,104.132782 
	C347.939331,104.107903 352.980255,104.145607 358.195679,104.463951 
	C359.237701,106.363853 360.105286,107.983109 360.972870,109.602356 
z"/>
<path fill="#557594" opacity="1.000000" stroke="none" 
	d="
M174.120438,125.947914 
	C172.389282,117.775337 166.925690,115.860672 159.477234,117.126694 
	C158.183868,117.346527 156.789627,117.339050 155.495651,117.119774 
	C151.838684,116.500053 149.958664,118.139168 149.088165,121.558136 
	C148.599014,123.479294 147.782104,125.317947 147.098022,127.188347 
	C144.647919,133.887405 144.855103,134.157562 151.625916,136.402176 
	C152.829163,136.801071 153.670471,138.291794 154.678909,139.278351 
	C154.388092,139.759125 154.097260,140.239914 153.806442,140.720703 
	C146.222717,140.720703 138.638458,140.760040 131.056122,140.657379 
	C130.330185,140.647568 129.616241,139.752670 128.896729,139.268646 
	C129.481018,138.445129 130.032074,136.932693 130.654617,136.902679 
	C138.473419,136.525711 139.749268,130.296371 141.854843,124.742584 
	C147.916840,108.752922 153.943161,92.748795 160.194885,76.833389 
	C160.819565,75.243073 162.851028,73.258255 164.298416,73.201164 
	C165.783432,73.142586 168.053482,74.900780 168.763763,76.429077 
	C171.770737,82.899231 174.325058,89.579765 176.696014,96.540237 
	C174.605759,94.259956 172.562103,91.769806 171.191833,88.952194 
	C168.993164,84.431099 167.240143,79.693275 165.003326,74.339920 
	C162.970505,78.171089 161.258423,80.847260 160.093292,83.743462 
	C158.849091,86.836227 158.067703,90.142433 160.661804,93.034721 
	C157.826782,99.186745 155.341675,105.240326 152.678253,111.728302 
	C158.231155,111.728302 162.940948,111.728302 168.318436,111.728302 
	C165.778503,105.188416 163.411102,99.092796 161.425110,93.004059 
	C163.160400,94.051041 165.350769,94.856560 165.719925,96.172844 
	C167.134857,101.217979 168.092484,106.405487 168.971710,111.582169 
	C169.633942,115.481239 171.980347,117.170364 176.969833,115.449791 
	C175.881012,119.461365 175.000717,122.704636 174.120438,125.947914 
z"/>
<path fill="#477199" opacity="1.000000" stroke="none" 
	d="
M161.011749,92.936279 
	C158.067703,90.142433 158.849091,86.836227 160.093292,83.743462 
	C161.258423,80.847260 162.970505,78.171089 165.003326,74.339920 
	C167.240143,79.693275 168.993164,84.431099 171.191833,88.952194 
	C172.562103,91.769806 174.605759,94.259956 176.714752,96.915817 
	C177.082321,96.934563 177.039932,96.937447 177.027054,97.359901 
	C177.657440,100.613808 178.075195,103.520950 178.994461,106.259766 
	C180.545029,110.879448 181.438660,116.203812 184.389709,119.749306 
	C188.265198,124.405495 185.443283,131.485474 190.994720,135.331436 
	C190.634689,136.781799 190.318710,137.886154 189.715424,139.008575 
	C188.956375,139.308670 188.484634,139.590729 188.012894,139.872787 
	C187.251617,139.911133 186.490356,139.949463 185.104614,139.674362 
	C182.651169,138.908188 180.822220,138.455444 178.948944,137.673340 
	C178.239700,136.878693 177.574783,136.413422 176.887131,135.589935 
	C176.818130,134.996964 176.771866,134.762207 176.725601,134.527466 
	C176.544327,133.549347 176.363052,132.571213 176.354614,131.123779 
	C176.104950,130.069275 175.682449,129.484100 175.259933,128.898926 
	C175.259933,128.898926 175.097244,128.758911 175.097458,128.636688 
	C175.097672,128.514465 175.078934,128.474197 175.078918,128.474197 
	C174.810486,127.930840 174.542038,127.387474 174.197021,126.396011 
	C175.000717,122.704636 175.881012,119.461365 176.969833,115.449791 
	C171.980347,117.170364 169.633942,115.481239 168.971710,111.582169 
	C168.092484,106.405487 167.134857,101.217979 165.719925,96.172844 
	C165.350769,94.856560 163.160400,94.051041 161.397369,92.999298 
	C160.988251,92.987648 161.011749,92.936279 161.011749,92.936279 
z"/>
<path fill="#577694" opacity="1.000000" stroke="none" 
	d="
M240.280823,126.481972 
	C249.140579,140.480331 266.181519,139.444977 276.181274,126.413055 
	C277.745514,124.374504 280.304016,123.098885 282.402740,121.470490 
	C282.932922,121.895172 283.463074,122.319855 283.993225,122.744545 
	C283.176361,126.887291 282.572662,131.090622 281.422180,135.138550 
	C281.040985,136.479813 279.443878,138.013550 278.078247,138.454407 
	C263.116150,143.284439 248.217087,144.253525 234.414078,135.223862 
	C222.395294,127.361412 219.378876,115.272804 221.296555,101.900848 
	C223.172012,88.823112 230.679016,79.544266 243.170731,75.113495 
	C247.901947,73.435356 253.252533,73.503372 258.373779,73.190208 
	C253.950974,74.403809 249.475174,75.202667 244.624512,76.009323 
	C241.059464,77.974152 237.842361,79.889359 234.697601,81.916801 
	C233.884842,82.440788 233.127228,83.215660 232.637421,84.047821 
	C229.857803,88.770164 226.585449,93.314453 224.587585,98.357773 
	C221.842636,105.286964 221.843231,112.655327 224.921524,119.596359 
	C226.418549,122.971916 228.702347,126.013824 230.755035,129.124237 
	C234.138672,134.251450 239.609543,136.640579 243.019608,135.123764 
	C242.090622,132.192490 241.185715,129.337234 240.280823,126.481972 
z"/>
<path fill="#477199" opacity="1.000000" stroke="none" 
	d="
M240.277313,126.332870 
	C241.185715,129.337234 242.090622,132.192490 243.019608,135.123764 
	C239.609543,136.640579 234.138672,134.251450 230.755035,129.124237 
	C228.702347,126.013824 226.418549,122.971916 224.921524,119.596359 
	C221.843231,112.655327 221.842636,105.286964 224.587585,98.357773 
	C226.585449,93.314453 229.857803,88.770164 232.637421,84.047821 
	C233.127228,83.215660 233.884842,82.440788 234.697601,81.916801 
	C237.842361,79.889359 241.059464,77.974152 244.625336,76.384598 
	C245.006973,77.502663 245.012894,78.253265 244.856628,79.310730 
	C241.208572,84.686409 237.700745,89.740486 234.273682,94.848763 
	C233.959763,95.316673 234.111359,96.132866 234.133041,96.784462 
	C234.388596,104.461800 234.532959,112.146225 234.991699,119.811729 
	C235.172821,122.838272 235.665741,126.153175 240.052811,125.983414 
	C240.052811,125.983414 240.273788,126.183769 240.277313,126.332870 
z"/>
<path fill="#F6FAFB" opacity="1.000000" stroke="none" 
	d="
M332.032562,103.922302 
	C331.878754,103.652412 331.681732,103.419006 331.274475,102.633545 
	C331.409454,94.378532 331.711517,86.712059 332.013580,79.045593 
	C334.462585,78.688187 336.949677,78.484657 339.340485,77.892303 
	C340.210999,77.676605 340.852051,76.534599 341.597809,75.815231 
	C340.780396,75.209274 339.974792,74.107590 339.143341,74.087761 
	C336.344818,74.020973 333.537140,74.339165 330.353851,74.361954 
	C330.668213,72.913612 331.452667,71.652718 332.035248,70.304581 
	C333.094818,67.852585 334.413147,67.394653 336.567352,69.215446 
	C338.173737,70.573204 340.243713,71.420364 341.716431,72.887238 
	C343.069702,74.235077 344.619690,76.076096 344.692719,77.760117 
	C344.736633,78.773605 342.081390,80.864822 340.709473,80.806847 
	C335.701721,80.595245 334.816986,83.275604 334.957794,87.342827 
	C335.014069,88.967796 334.225830,90.679443 334.509705,92.225349 
	C334.912445,94.418381 336.063965,96.461884 336.692291,98.628212 
	C337.762451,102.317879 340.126587,100.273384 342.263794,100.210609 
	C345.030670,100.129333 347.968933,101.406967 350.560730,100.844009 
	C354.944946,99.891693 359.658173,98.685638 363.132416,96.104652 
	C364.721985,94.923790 363.870483,90.216553 363.787262,87.117699 
	C363.739777,85.348701 363.010437,83.598022 362.768616,82.590820 
	C359.257385,80.477440 356.190399,78.631447 352.143433,76.195602 
	C354.518280,75.022003 355.484985,74.544273 356.758118,74.445389 
	C358.593140,75.910469 359.979370,77.434242 361.681213,77.987724 
	C364.787170,78.997864 367.249512,80.208794 367.096313,84.378105 
	C367.096771,85.858299 367.153900,86.936432 367.158875,88.257538 
	C367.106781,88.500511 367.258331,88.973846 367.203613,89.417053 
	C367.208984,92.235100 367.269043,94.609932 367.229065,97.395264 
	C367.146484,99.208229 367.163910,100.610703 367.114563,102.302277 
	C367.041779,102.789108 367.035858,102.986832 366.821838,103.278366 
	C366.330841,103.505241 366.099792,103.699898 365.955597,103.975243 
	C365.990601,103.994339 365.952484,103.924301 365.513672,103.882645 
	C362.723633,103.955101 360.372406,104.069199 358.021179,104.183304 
	C352.980255,104.145607 347.939331,104.107903 341.987823,104.055412 
	C338.062347,104.001183 335.047455,103.961746 332.032562,103.922302 
z"/>
<path fill="#F6FAFB" opacity="1.000000" stroke="none" 
	d="
M306.812317,140.017517 
	C310.466553,139.995377 313.740845,140.021561 317.013916,140.099518 
	C323.977142,140.265350 330.939423,140.540619 337.902740,140.561279 
	C339.110565,140.564865 340.321472,139.538544 341.530975,138.987946 
	C340.432190,138.027847 339.479950,136.652832 338.201538,136.201187 
	C336.082825,135.452667 333.754181,135.298416 331.111176,134.821060 
	C331.111176,127.333145 331.182617,120.215118 331.079987,113.099609 
	C331.031158,109.712456 333.236542,109.387314 335.671875,109.395523 
	C340.481354,109.411743 345.290375,109.559097 350.928589,109.671417 
	C352.840546,109.819427 353.923431,109.948265 355.006348,110.077103 
	C348.541412,110.951210 342.076477,111.825317 335.249847,112.748322 
	C334.779572,118.895889 332.880005,125.269913 337.406708,130.935577 
	C338.143738,131.858093 339.372040,132.593750 340.517792,132.946823 
	C344.491241,134.171234 346.149170,137.015182 344.873505,140.815659 
	C343.973053,143.498291 339.743561,144.557907 336.728821,143.902252 
	C333.001495,143.091614 329.058685,143.008408 325.214996,143.060059 
	C319.928589,143.131104 314.650482,143.705994 309.362762,143.877060 
	C308.021698,143.920441 306.657623,143.252350 305.304108,142.911179 
	C305.679993,141.970551 306.055908,141.029938 306.812317,140.017517 
z"/>
<path fill="#F6FAFB" opacity="1.000000" stroke="none" 
	d="
M313.041321,79.351204 
	C316.044617,78.445801 317.170166,79.749519 317.148102,82.793999 
	C317.028687,99.265114 317.090942,115.738068 316.845795,132.206726 
	C316.827576,133.431122 315.107208,135.042191 313.789734,135.735901 
	C311.946045,136.706680 309.737091,136.983887 307.411713,137.804688 
	C307.090698,136.604919 307.042389,135.158264 306.997009,133.355804 
	C307.000000,133.000000 306.998779,133.000885 306.998779,133.000885 
	C307.781982,132.832047 308.885712,132.929520 309.288544,132.444641 
	C310.518951,130.963699 311.479584,129.258636 313.517334,128.206589 
	C314.001160,122.985237 314.485535,117.763947 314.966339,112.542320 
	C314.981415,112.378593 315.019501,112.176857 314.946594,112.050919 
	C309.777161,103.122948 315.586212,94.126534 314.731689,85.188461 
	C314.554260,83.332489 313.651031,81.545921 313.041321,79.351204 
z"/>
<path fill="#547495" opacity="1.000000" stroke="none" 
	d="
M245.018814,79.003868 
	C245.012894,78.253265 245.006973,77.502663 245.000214,76.376785 
	C249.475174,75.202667 253.950974,74.403809 258.700745,73.327370 
	C260.380524,73.036995 261.786346,73.024208 263.694336,73.230453 
	C264.196533,73.449493 264.635986,73.540657 264.635986,73.540657 
	C264.635986,73.540657 264.973541,73.199326 264.973541,73.199326 
	C265.737335,73.190094 266.501129,73.180870 267.702271,73.570648 
	C269.084106,74.001335 270.028564,74.033005 270.973022,74.064682 
	C271.429321,74.051445 271.885590,74.038208 272.718292,74.459976 
	C275.685486,76.930962 278.276276,78.966927 280.867065,81.002892 
	C280.980469,81.341637 281.093842,81.680382 281.133301,82.713989 
	C281.510315,86.799644 279.010529,87.598595 276.604828,88.480179 
	C276.604828,88.480179 276.625366,88.401306 276.707825,88.019821 
	C275.597046,85.907837 274.747406,83.704445 273.143524,82.539108 
	C269.001068,79.529366 264.773285,76.189812 259.007782,77.982414 
	C258.551697,77.996727 258.095581,78.011040 257.156494,77.743164 
	C256.124359,77.596687 255.575272,77.732399 255.026184,77.868103 
	C253.545639,78.235397 252.065079,78.602676 249.804718,78.975494 
	C247.689545,78.988647 246.354187,78.996262 245.018814,79.003868 
z"/>
<path fill="#577694" opacity="1.000000" stroke="none" 
	d="
M244.856628,79.310730 
	C246.354187,78.996262 247.689545,78.988647 249.422974,78.965797 
	C242.871246,82.998993 239.466827,89.434578 238.052917,97.015350 
	C236.274933,106.548027 235.924911,116.050400 240.027176,125.597061 
	C235.665741,126.153175 235.172821,122.838272 234.991699,119.811729 
	C234.532959,112.146225 234.388596,104.461800 234.133041,96.784462 
	C234.111359,96.132866 233.959763,95.316673 234.273682,94.848763 
	C237.700745,89.740486 241.208572,84.686409 244.856628,79.310730 
z"/>
<path fill="#5B7A98" opacity="1.000000" stroke="none" 
	d="
M367.152954,83.976044 
	C367.249512,80.208794 364.787170,78.997864 361.681213,77.987724 
	C359.979370,77.434242 358.593140,75.910469 357.097534,74.437408 
	C357.294678,74.018166 357.458862,73.985725 358.284546,73.890579 
	C361.633728,73.823593 364.321411,73.819313 367.009094,73.815033 
	C372.696228,73.860100 378.383362,73.905167 384.939880,73.906387 
	C387.179230,73.787300 388.549133,73.712059 389.919067,73.636810 
	C390.243835,73.901848 390.568634,74.166885 391.043610,74.710266 
	C390.941193,79.408615 386.823395,77.450607 384.308014,78.534706 
	C378.736877,73.997032 373.161804,76.549400 368.411438,76.431450 
	C367.906830,79.456474 367.529907,81.716263 367.152954,83.976044 
z"/>
<path fill="#5C7892" opacity="1.000000" stroke="none" 
	d="
M191.038788,134.985443 
	C185.443283,131.485474 188.265198,124.405495 184.389709,119.749306 
	C181.438660,116.203812 180.545029,110.879448 178.994461,106.259766 
	C178.075195,103.520950 177.657440,100.613808 177.041534,97.346161 
	C180.789215,105.728523 184.478989,114.560173 188.244156,123.359558 
	C189.870316,127.160049 191.652252,130.893890 193.609299,134.913086 
	C193.855179,135.168167 193.838730,135.182480 193.491974,135.125061 
	C192.443069,135.040253 191.740921,135.012848 191.038788,134.985443 
z"/>
<path fill="#6B8296" opacity="1.000000" stroke="none" 
	d="
M65.255676,140.196503 
	C67.420540,139.940018 69.981590,139.797073 73.252182,139.614532 
	C72.372620,137.888260 71.768990,136.703522 71.547836,135.238312 
	C74.960251,135.347626 77.990189,135.737457 81.020119,136.127274 
	C81.519775,141.652542 86.183769,137.692383 88.675957,139.606720 
	C81.199837,140.007217 73.425850,140.158615 65.255676,140.196503 
z"/>
<path fill="#5B7A98" opacity="1.000000" stroke="none" 
	d="
M64.582039,74.176079 
	C65.826393,75.173073 66.626076,76.088989 68.147827,77.831932 
	C64.756767,78.244232 61.819416,78.857323 58.901703,78.774918 
	C58.178421,78.754501 57.518795,76.480164 56.883751,74.922791 
	C59.337517,74.434128 61.737442,74.264565 64.582039,74.176079 
z"/>
<path fill="#577694" opacity="1.000000" stroke="none" 
	d="
M259.325562,78.155144 
	C264.773285,76.189812 269.001068,79.529366 273.143524,82.539108 
	C274.747406,83.704445 275.597046,85.907837 276.669434,88.006119 
	C271.758057,83.604042 266.830841,79.064224 259.325562,78.155144 
z"/>
<path fill="#5C7892" opacity="1.000000" stroke="none" 
	d="
M188.418823,139.966583 
	C188.484634,139.590729 188.956375,139.308670 190.097473,139.019562 
	C192.395721,139.223816 194.024628,139.435120 196.583725,139.767105 
	C195.285767,137.599289 194.562256,136.390884 193.838730,135.182480 
	C193.838730,135.182480 193.855179,135.168167 193.843018,135.174286 
	C196.332932,136.596390 201.263977,134.792892 200.974426,140.807205 
	C196.698654,140.544388 192.761688,140.302383 188.418823,139.966583 
z"/>
<path fill="#6B8296" opacity="1.000000" stroke="none" 
	d="
M176.924881,139.984055 
	C174.805008,140.232468 172.683136,140.671692 170.566071,140.649628 
	C169.490128,140.638428 168.422806,139.796616 167.351593,139.330292 
	C168.247803,138.394012 169.008911,137.232407 170.081055,136.589569 
	C171.012787,136.030930 172.296295,136.058960 173.557968,136.210541 
	C173.209641,137.505630 172.727676,138.417908 172.049133,139.702225 
	C174.042969,139.817474 175.483917,139.900772 176.924881,139.984055 
z"/>
<path fill="#577694" opacity="1.000000" stroke="none" 
	d="
M280.873901,80.624420 
	C278.276276,78.966927 275.685486,76.930962 273.046509,74.563080 
	C277.268646,74.083076 280.383789,75.448921 280.873901,80.624420 
z"/>
<path fill="#F6FAFB" opacity="1.000000" stroke="none" 
	d="
M356.013763,119.434479 
	C356.534180,117.793404 357.045349,116.573624 357.556519,115.353844 
	C357.832062,115.464058 358.107574,115.574265 358.383118,115.684471 
	C358.383118,119.022339 358.383118,122.360207 358.383118,125.698074 
	C357.800537,125.753448 357.217926,125.808815 356.635345,125.864189 
	C356.425049,123.861382 356.214783,121.858574 356.013763,119.434479 
z"/>
<path fill="#577694" opacity="1.000000" stroke="none" 
	d="
M276.725037,88.827850 
	C279.010529,87.598595 281.510315,86.799644 281.094788,82.981575 
	C281.841675,85.125336 282.553131,87.696365 283.264618,90.267395 
	C282.925354,90.675171 282.586090,91.082954 282.246826,91.490730 
	C280.446320,90.718994 278.645782,89.947258 276.725037,88.827850 
z"/>
<path fill="#F6FAFB" opacity="1.000000" stroke="none" 
	d="
M357.401245,94.375092 
	C356.640167,91.280060 356.206146,88.012016 355.772125,84.743973 
	C356.424164,84.708122 357.076233,84.672264 357.728302,84.636414 
	C357.728302,87.824974 357.728302,91.013527 357.401245,94.375092 
z"/>
<path fill="#557594" opacity="1.000000" stroke="none" 
	d="
M176.953445,139.994507 
	C175.483917,139.900772 174.042969,139.817474 172.049133,139.702225 
	C172.727676,138.417908 173.209641,137.505630 173.846283,136.288696 
	C174.164505,135.922150 174.328049,135.860245 174.820847,135.964142 
	C175.246597,135.935104 175.343079,135.740250 175.439560,135.545410 
	C175.439560,135.545410 175.564713,135.466583 175.911713,135.610458 
	C176.475769,135.818939 176.692810,135.883545 176.909866,135.948135 
	C177.574783,136.413422 178.239700,136.878693 178.687378,137.791168 
	C177.977951,138.807510 177.485764,139.376663 176.993576,139.945831 
	C176.993576,139.945831 176.982010,140.004944 176.953445,139.994507 
z"/>
<path fill="#F6FAFB" opacity="1.000000" stroke="none" 
	d="
M366.933563,73.478981 
	C364.321411,73.819313 361.633728,73.823593 358.503937,73.768524 
	C360.849274,71.273849 363.704681,69.894325 366.933563,73.478981 
z"/>
<path fill="#F6FAFB" opacity="1.000000" stroke="none" 
	d="
M306.782837,75.064278 
	C308.428497,76.129425 309.691467,77.252304 311.248138,78.607773 
	C309.681946,79.430458 307.822052,80.020538 304.623291,81.035378 
	C305.367676,78.558044 305.883911,76.840019 306.782837,75.064278 
z"/>
<path fill="#F6FAFB" opacity="1.000000" stroke="none" 
	d="
M315.828003,73.542717 
	C313.954620,73.861679 311.927765,73.880043 309.470886,73.836929 
	C311.142822,72.238777 313.077911,68.626251 315.828003,73.542717 
z"/>
<path fill="#F6FAFB" opacity="1.000000" stroke="none" 
	d="
M995.061584,143.287369 
	C997.087463,142.790573 999.173096,142.657486 1001.635132,142.598312 
	C999.994324,144.965698 997.851929,146.378967 995.061584,143.287369 
z"/>
<path fill="#5C7892" opacity="1.000000" stroke="none" 
	d="
M177.434494,140.001587 
	C177.485764,139.376663 177.977951,138.807510 178.731689,138.120529 
	C180.822220,138.455444 182.651169,138.908188 184.728607,139.604416 
	C182.609863,139.917709 180.242645,139.987518 177.434494,140.001587 
z"/>
<path fill="#5B7A98" opacity="1.000000" stroke="none" 
	d="
M355.261200,109.963249 
	C353.923431,109.948265 352.840546,109.819427 351.372650,109.551270 
	C352.596802,109.261894 354.205902,109.111847 355.911987,109.274475 
	C355.844635,109.674583 355.680328,109.761993 355.261200,109.963249 
z"/>
<path fill="#6B8296" opacity="1.000000" stroke="none" 
	d="
M48.613270,136.906723 
	C48.978031,138.000229 48.984467,139.060776 49.006462,140.518616 
	C48.256535,140.593826 47.491043,140.271744 46.725555,139.949661 
	C47.235352,138.924362 47.745144,137.899063 48.613270,136.906723 
z"/>
<path fill="#F6FAFB" opacity="1.000000" stroke="none" 
	d="
M389.684998,73.426254 
	C388.549133,73.712059 387.179230,73.787300 385.398987,73.813599 
	C386.476074,73.581673 387.963531,73.398689 389.684998,73.426254 
z"/>
<path fill="#577694" opacity="1.000000" stroke="none" 
	d="
M270.718567,73.874153 
	C270.028564,74.033005 269.084106,74.001335 268.070007,73.680222 
	C268.821625,73.488411 269.642883,73.586021 270.718567,73.874153 
z"/>
<path fill="#6B8296" opacity="1.000000" stroke="none" 
	d="
M175.253815,129.197937 
	C175.682449,129.484100 176.104950,130.069275 176.320740,130.824249 
	C175.825241,130.495026 175.536469,129.996002 175.253815,129.197937 
z"/>
<path fill="#F6FAFB" opacity="1.000000" stroke="none" 
	d="
M307.000610,132.999634 
	C306.490936,132.697266 305.980621,132.395233 305.470337,132.093216 
	C305.651947,131.883575 305.833527,131.673935 306.015137,131.464294 
	C306.319916,131.786911 306.624695,132.109543 306.964111,132.716522 
	C306.998779,133.000885 307.000000,133.000000 307.000610,132.999634 
z"/>
<path fill="#6B8296" opacity="1.000000" stroke="none" 
	d="
M55.894405,133.252655 
	C55.959896,133.661606 55.890068,134.303009 55.559639,134.984558 
	C55.452389,134.511505 55.605736,133.998291 55.894405,133.252655 
z"/>
<path fill="#5B7A98" opacity="1.000000" stroke="none" 
	d="
M48.870789,74.976364 
	C48.930737,75.415245 48.837448,75.598167 48.532642,75.816986 
	C48.148823,75.561310 47.903553,75.232513 47.658283,74.903732 
	C48.035698,74.855034 48.413116,74.806335 48.870789,74.976364 
z"/>
<path fill="#577694" opacity="1.000000" stroke="none" 
	d="
M255.348053,77.935059 
	C255.575272,77.732399 256.124359,77.596687 256.822021,77.662689 
	C256.537018,77.910271 256.103485,77.956139 255.348053,77.935059 
z"/>
<path fill="#577694" opacity="1.000000" stroke="none" 
	d="
M264.738251,73.128922 
	C264.973541,73.199326 264.635986,73.540657 264.635986,73.540657 
	C264.635986,73.540657 264.196533,73.449493 264.110046,73.307419 
	C264.023529,73.165344 264.502960,73.058510 264.738251,73.128922 
z"/>
<path fill="#6B8296" opacity="1.000000" stroke="none" 
	d="
M175.314026,135.549255 
	C175.343079,135.740250 175.246597,135.935104 175.081024,135.930847 
	C175.011948,135.731766 175.188492,135.553085 175.314026,135.549255 
z"/>
<path fill="#6B8296" opacity="1.000000" stroke="none" 
	d="
M176.887131,135.589935 
	C176.692810,135.883545 176.475769,135.818939 175.971909,135.567505 
	C175.792587,135.069992 175.992172,134.838715 176.504730,134.607178 
	C176.771866,134.762207 176.818130,134.996964 176.887131,135.589935 
z"/>
<path fill="#6B8296" opacity="1.000000" stroke="none" 
	d="
M175.021942,128.388153 
	C175.078934,128.474197 175.097672,128.514465 175.107285,128.529816 
	C175.116898,128.545151 174.964966,128.302094 175.021942,128.388153 
z"/>
<path fill="#4F7297" opacity="1.000000" stroke="none" 
	d="
M367.096313,84.378105 
	C367.529907,81.716263 367.906830,79.456474 368.411438,76.431450 
	C373.161804,76.549400 378.736877,73.997032 383.925720,78.554749 
	C383.059326,80.500351 381.321289,82.066872 381.306427,83.649551 
	C381.158447,99.429504 381.352631,115.212334 381.296173,130.993805 
	C381.286194,133.782867 382.470612,134.590637 384.954651,135.229401 
	C387.259369,135.822067 390.931183,135.441757 390.735046,140.019852 
	C379.420990,140.019852 368.380402,140.019852 357.339813,140.019852 
	C357.063110,139.541183 356.786407,139.062515 356.509705,138.583847 
	C358.055115,137.685226 359.540314,136.162888 361.157379,136.006897 
	C365.698944,135.568756 367.390747,133.502441 367.073242,128.948654 
	C366.739044,124.155243 367.115173,119.316185 366.977112,114.502914 
	C366.934113,113.002983 366.228180,111.522072 365.417511,109.523468 
	C365.323730,107.317749 365.638092,105.621025 365.952454,103.924301 
	C365.952484,103.924301 365.990601,103.994339 366.185883,103.920609 
	C366.678284,103.705307 366.894562,103.484528 367.029938,103.184563 
	C367.035858,102.986832 367.041779,102.789108 367.451721,102.220390 
	C367.680176,100.227852 367.504639,98.606308 367.329102,96.984764 
	C367.269043,94.609932 367.208984,92.235100 367.333954,89.319534 
	C367.676849,88.440681 367.574188,88.185936 367.210999,88.014565 
	C367.153900,86.936432 367.096771,85.858299 367.096313,84.378105 
z"/>
<path fill="#5B7A98" opacity="1.000000" stroke="none" 
	d="
M365.513672,103.882645 
	C365.638092,105.621025 365.323730,107.317749 365.013397,109.388184 
	C363.931702,109.782784 362.845947,109.803665 361.366516,109.713455 
	C360.105286,107.983109 359.237701,106.363853 358.195679,104.463951 
	C360.372406,104.069199 362.723633,103.955101 365.513672,103.882645 
z"/>
<path fill="#F8FCFC" opacity="1.000000" stroke="none" 
	d="
M81.348106,136.060822 
	C77.990189,135.737457 74.960251,135.347626 71.538376,134.866669 
	C71.076126,134.074448 71.005806,133.373367 70.894089,131.870026 
	C70.913933,123.054634 70.975174,115.041504 71.036415,107.028374 
	C74.004776,107.007111 76.980713,106.839928 79.940010,106.993401 
	C87.262169,107.373161 92.411560,111.344139 93.793716,117.481873 
	C95.482735,124.982292 93.007095,130.897842 85.960739,134.855957 
	C84.785858,135.273178 84.231079,135.551514 83.676292,135.829849 
	C83.009560,135.884689 82.342827,135.939514 81.348106,136.060822 
z"/>
<path fill="#48709B" opacity="1.000000" stroke="none" 
	d="
M68.987778,128.993729 
	C68.318558,130.280151 67.303696,131.500229 67.041817,132.864822 
	C66.069572,137.930954 64.270752,138.867310 59.593163,136.439331 
	C59.067581,118.153519 58.541676,99.867706 58.022190,81.805115 
	C60.429810,81.320366 62.318008,80.488434 64.052780,80.735168 
	C65.417770,80.929329 67.523354,82.319435 67.681755,83.412758 
	C68.189941,86.920456 68.333908,90.587402 67.876823,94.096298 
	C67.479118,97.149330 66.074959,100.071251 65.352242,102.315948 
	C67.367264,104.022507 68.672920,105.128296 69.737175,106.615341 
	C69.495773,106.996613 68.997337,107.001167 68.697441,106.889870 
	C67.270142,107.864990 66.142731,108.951408 65.015320,110.037819 
	C66.008995,110.358368 67.002663,110.678925 68.293152,111.293182 
	C68.722572,117.389175 68.855179,123.191452 68.987778,128.993729 
z"/>
<path fill="#F6FBFC" opacity="1.000000" stroke="none" 
	d="
M72.002129,102.265167 
	C71.339767,101.337959 70.116112,100.416641 70.106331,99.482597 
	C70.043846,93.516747 70.160706,87.543877 70.448143,81.584381 
	C70.498276,80.544823 71.461227,78.866394 72.300140,78.653030 
	C81.049309,76.427879 92.133995,80.463081 91.040100,91.748718 
	C90.484116,97.484795 88.140678,99.935211 80.120827,102.071930 
	C79.328476,102.165329 79.163521,102.220474 78.998573,102.275620 
	C77.280220,102.275993 75.561859,102.276375 73.175781,102.212280 
	C72.339409,102.186943 72.170769,102.226059 72.002129,102.265167 
z"/>
<path fill="#52708C" opacity="1.000000" stroke="none" 
	d="
M68.994339,129.329926 
	C68.855179,123.191452 68.722572,117.389175 68.296204,110.942841 
	C68.334061,109.199585 68.665695,108.100372 68.997337,107.001167 
	C68.997337,107.001167 69.495773,106.996613 69.744888,106.991989 
	C70.167778,106.994644 70.341553,107.001923 70.775879,107.018784 
	C70.975174,115.041504 70.913933,123.054634 70.793320,131.532654 
	C70.156265,131.220398 69.578583,130.443268 68.994339,129.329926 
z"/>
<path fill="#6B8296" opacity="1.000000" stroke="none" 
	d="
M84.003174,135.873688 
	C84.231079,135.551514 84.785858,135.273178 85.660912,135.024475 
	C85.430801,135.341904 84.880424,135.629700 84.003174,135.873688 
z"/>
<path fill="#6B8296" opacity="1.000000" stroke="none" 
	d="
M72.091354,102.400482 
	C72.170769,102.226059 72.339409,102.186943 72.747635,102.248199 
	C72.987206,102.348572 72.621742,102.638779 72.621742,102.638779 
	C72.621742,102.638779 72.180573,102.535797 72.091354,102.400482 
z"/>
<path fill="#6B8296" opacity="1.000000" stroke="none" 
	d="
M79.103470,102.407707 
	C79.163521,102.220474 79.328476,102.165329 79.749710,102.159500 
	C79.740112,102.319153 79.474243,102.429474 79.103470,102.407707 
z"/>
<path fill="#52708C" opacity="1.000000" stroke="none" 
	d="
M331.815430,78.787102 
	C331.711517,86.712059 331.409454,94.378532 331.079865,102.510803 
	C330.367950,101.437065 329.194519,99.930908 329.086731,98.352005 
	C328.691986,92.569099 328.524628,86.759872 328.621277,80.966385 
	C328.635101,80.137352 330.570953,79.340401 331.815430,78.787102 
z"/>
<path fill="#5B7A98" opacity="1.000000" stroke="none" 
	d="
M332.239044,104.214340 
	C335.047455,103.961746 338.062347,104.001183 341.522705,104.117996 
	C338.841278,105.748268 335.686188,106.437119 332.239044,104.214340 
z"/>
<path fill="#EDF6FA" opacity="1.000000" stroke="none" 
	d="
M161.015991,92.992416 
	C163.411102,99.092796 165.778503,105.188416 168.318436,111.728302 
	C162.940948,111.728302 158.231155,111.728302 152.678253,111.728302 
	C155.341675,105.240326 157.826782,99.186745 160.661804,93.034721 
	C161.011749,92.936279 160.988251,92.987648 161.015991,92.992416 
z"/>
<path fill="#557594" opacity="1.000000" stroke="none" 
	d="
M193.491974,135.125061 
	C194.562256,136.390884 195.285767,137.599289 196.583725,139.767105 
	C194.024628,139.435120 192.395721,139.223816 190.384781,139.001511 
	C190.318710,137.886154 190.634689,136.781799 190.994720,135.331436 
	C191.740921,135.012848 192.443069,135.040253 193.491974,135.125061 
z"/>
<path fill="#5B7A98" opacity="1.000000" stroke="none" 
	d="
M367.229065,97.395264 
	C367.504639,98.606308 367.680176,100.227852 367.518555,101.931290 
	C367.163910,100.610703 367.146484,99.208229 367.229065,97.395264 
z"/>
<path fill="#5B7A98" opacity="1.000000" stroke="none" 
	d="
M367.158905,88.257538 
	C367.574188,88.185936 367.676849,88.440681 367.388672,88.876328 
	C367.258331,88.973846 367.106781,88.500511 367.158905,88.257538 
z"/>
<path fill="#5B7A98" opacity="1.000000" stroke="none" 
	d="
M366.821838,103.278366 
	C366.894562,103.484528 366.678284,103.705307 366.150879,103.901520 
	C366.099792,103.699898 366.330841,103.505241 366.821838,103.278366 
z"/>
<path fill="#4F7294" opacity="1.000000" stroke="none" 
	d="
M68.697441,106.889870 
	C68.665695,108.100372 68.334061,109.199585 67.999382,110.649132 
	C67.002663,110.678925 66.008995,110.358368 65.015320,110.037819 
	C66.142731,108.951408 67.270142,107.864990 68.697441,106.889870 
z"/>
</svg>